<svg xmlns="http://www.w3.org/2000/svg" width="256" height="256" viewBox="0 0 100 100"><rect width="100" height="100" rx="20" fill="#000000"></rect><path fill="#fff" d="M34.72 34.54L39.09 34.54L39.09 65.68L34.99 65.68L34.99 42.46L24.64 65.68L21.76 65.68L11.37 42.42L11.37 65.68L7.27 65.68L7.27 34.54L11.68 34.54L23.20 60.28L34.72 34.54ZM44.08 34.32L65.32 34.32L65.32 37.65L56.77 37.65L56.77 65.68L52.68 65.68L52.68 37.65L44.08 37.65L44.08 34.32ZM92.73 65.68L87.37 65.68L74.46 51.37L74.46 65.68L70.36 65.68L70.36 34.32L74.46 34.32L74.46 48.85L87.42 34.32L92.59 34.32L78.37 50.02L92.73 65.68Z"></path></svg>